<svg width="45" height="32" viewBox="0 0 45 32" fill="none" xmlns="http://www.w3.org/2000/svg">
<ellipse cx="22.5" cy="16" rx="22" ry="16" fill="#E6F1F8"/>
<g clip-path="url(#clip0_6548_15979)">
<path d="M19 15.75C18.6685 15.75 18.3505 15.8817 18.1161 16.1161C17.8817 16.3505 17.75 16.6685 17.75 17C17.75 17.3315 17.8817 17.6495 18.1161 17.8839C18.3505 18.1183 18.6685 18.25 19 18.25C19.1642 18.25 19.3267 18.2177 19.4784 18.1548C19.63 18.092 19.7678 18 19.8839 17.8839C20 17.7678 20.092 17.63 20.1548 17.4784C20.2177 17.3267 20.25 17.1642 20.25 17C20.25 16.8358 20.2177 16.6733 20.1548 16.5216C20.092 16.37 20 16.2322 19.8839 16.1161C19.7678 16 19.63 15.908 19.4784 15.8452C19.3267 15.7823 19.1642 15.75 19 15.75ZM25 15.75C24.6685 15.75 24.3505 15.8817 24.1161 16.1161C23.8817 16.3505 23.75 16.6685 23.75 17C23.75 17.3315 23.8817 17.6495 24.1161 17.8839C24.3505 18.1183 24.6685 18.25 25 18.25C25.3315 18.25 25.6495 18.1183 25.8839 17.8839C26.1183 17.6495 26.25 17.3315 26.25 17C26.25 16.6685 26.1183 16.3505 25.8839 16.1161C25.6495 15.8817 25.3315 15.75 25 15.75ZM22 6C20.6868 6 19.3864 6.25866 18.1732 6.7612C16.9599 7.26375 15.8575 8.00035 14.9289 8.92893C13.0536 10.8043 12 13.3478 12 16C12 18.6522 13.0536 21.1957 14.9289 23.0711C15.8575 23.9997 16.9599 24.7362 18.1732 25.2388C19.3864 25.7413 20.6868 26 22 26C24.6522 26 27.1957 24.9464 29.0711 23.0711C30.9464 21.1957 32 18.6522 32 16C32 14.6868 31.7413 13.3864 31.2388 12.1732C30.7362 10.9599 29.9997 9.85752 29.0711 8.92893C28.1425 8.00035 27.0401 7.26375 25.8268 6.7612C24.6136 6.25866 23.3132 6 22 6ZM22 24C19.8783 24 17.8434 23.1571 16.3431 21.6569C14.8429 20.1566 14 18.1217 14 16C13.9691 15.7142 13.9691 15.4258 14 15.14C16.3819 14.0978 18.2673 12.173 19.26 9.77C20.1822 11.0768 21.4047 12.1431 22.8246 12.8792C24.2446 13.6153 25.8206 13.9996 27.42 14C28.18 14 28.93 13.91 29.67 13.74C30.92 18 28.5 22.43 24.26 23.67C23.5 23.89 22.76 24 22 24ZM10 6C10 5.46957 10.2107 4.96086 10.5858 4.58579C10.9609 4.21071 11.4696 4 12 4H16V6H12V10H10V6ZM34 26C34 26.5304 33.7893 27.0391 33.4142 27.4142C33.0391 27.7893 32.5304 28 32 28H28V26H32V22H34V26ZM12 28C11.4696 28 10.9609 27.7893 10.5858 27.4142C10.2107 27.0391 10 26.5304 10 26V22H12V26H16V28H12ZM32 4C32.5304 4 33.0391 4.21071 33.4142 4.58579C33.7893 4.96086 34 5.46957 34 6V10H32V6H28V4H32Z" fill="#0277B7"/>
</g>
<defs>
<clipPath id="clip0_6548_15979">
<rect width="24" height="24" fill="white" transform="translate(10 4)"/>
</clipPath>
</defs>
</svg>
