<svg width="52" height="54" viewBox="0 0 52 54" fill="none" xmlns="http://www.w3.org/2000/svg">
<path d="M0 10C0 4.47715 4.47715 0 10 0H40C45.5228 0 50 4.47715 50 10V40C50 45.5228 45.5228 50 40 50H10C4.47715 50 0 45.5228 0 40V10Z" fill="#E6F1F8"/>
<path d="M5 8C5 6.34315 6.34315 5 8 5H43C44.6569 5 46 6.34315 46 8V43C46 44.6569 44.6569 46 43 46H8C6.34315 46 5 44.6569 5 43V8Z" fill="#0277B7"/>
<path d="M8.23438 12.5555C8.23438 10.8987 9.57752 9.55554 11.2344 9.55554H39.1167C40.7736 9.55554 42.1167 10.8987 42.1167 12.5555V16.5H8.23438V12.5555Z" fill="#FFB000"/>
<rect x="4.5" y="4.5" width="41.3529" height="41.2515" rx="3.5" stroke="#121212"/>
<rect x="8.23438" y="19.8625" width="4" height="2" fill="#E6F1F8"/>
<rect x="15.2344" y="19.8625" width="26.8824" height="2" fill="#E6F1F8"/>
<rect x="8.23438" y="24.8334" width="4" height="2" fill="#E6F1F8"/>
<rect x="15.2344" y="24.8334" width="26.8824" height="2" fill="#E6F1F8"/>
<rect x="8.23438" y="30.3889" width="4" height="2" fill="#E6F1F8"/>
<rect x="15.2344" y="30.3889" width="26.8824" height="2" fill="#E6F1F8"/>
<rect x="8.23438" y="35.9445" width="4" height="2" fill="#E6F1F8"/>
<rect x="15.2344" y="35.9445" width="26.8824" height="2" fill="#E6F1F8"/>
<path d="M51.2991 44.2778C51.2991 49.2499 47.1988 53.3 42.1167 53.3C37.0346 53.3 32.9344 49.2499 32.9344 44.2778C32.9344 39.3057 37.0346 35.2555 42.1167 35.2555C47.1988 35.2555 51.2991 39.3057 51.2991 44.2778Z" fill="#FBFBFB" stroke="#FFB000" stroke-width="1.4"/>
<path d="M42.1172 44.2778L42.1172 40.1112" stroke="black" stroke-width="1.5" stroke-linecap="round"/>
<path d="M44.9414 48.4445L42.1179 44.8625" stroke="black" stroke-width="1.5" stroke-linecap="round"/>
</svg>
